<?xml version="1.0" encoding="utf-8"?>
<!-- Generator: Adobe Illustrator 27.8.1, SVG Export Plug-In . SVG Version: 6.00 Build 0)  -->
<svg version="1.1" id="Ebene_1" xmlns="http://www.w3.org/2000/svg" xmlns:xlink="http://www.w3.org/1999/xlink" x="0px" y="0px"
	 viewBox="0 0 240.9 56.7" style="enable-background:new 0 0 240.9 56.7;" xml:space="preserve">
<style type="text/css">
	.st0{fill:#FFFFFF;}
</style>
<g>
	<g>
		<path class="st0" d="M42.8,28.2c0,8-6.5,14.4-14.4,14.4c-8,0-14.4-6.5-14.4-14.4s6.5-14.4,14.4-14.4
			C36.3,13.7,42.8,20.2,42.8,28.2 M56.7,0H0v56.7h56.7V0z"/>
		<path class="st0" d="M240.3,52.6c0.4,0,0.6-0.3,0.6-0.6s-0.3-0.6-0.6-0.6c-0.4,0-0.6,0.3-0.6,0.6S239.9,52.6,240.3,52.6
			 M238.5,52.5v-0.8c-0.8,0.1-1.4,0.1-1.6-0.4c-0.1-0.2-0.1-0.6-0.1-1v-2.8h1.7v-0.8h-1.7v-1.6h-0.9v1.6h-1.2v0.8h1.2v2.8
			c0,0.6,0,1,0.2,1.5C236.4,52.6,237.5,52.7,238.5,52.5 M229.4,52.5h0.9v-2.2l0.6-0.5l2.2,2.7h1.1l-2.6-3.3l2.5-2.4h-1.2l-2.5,2.4
			v-4.3h-0.9L229.4,52.5z M222.8,52.5h1v-3c0-1.3,0.6-2,1.6-2c1.2,0,1.6,1,1.6,2.1v2.9h1v-3.2c0-1.1-0.4-2.7-2.3-2.7
			c-0.8,0-1.5,0.3-1.9,0.9v-0.7h-0.9V52.5z M218.4,52.7c0.8,0,1.5-0.3,1.9-0.9v0.7h0.8v-5.8h-1v3c0,1.3-0.6,2-1.6,2
			c-1.2,0-1.6-1-1.6-2.1v-2.9h-1v3.2C216.1,51,216.5,52.7,218.4,52.7 M210.5,48.8v-3h2.1c0.1,0,0.3,0,0.5,0c0.7,0.2,1,0.8,1,1.5
			c0,0.6-0.3,1.3-1,1.5c-0.2,0-0.3,0-0.5,0H210.5z M209.6,52.5h0.9v-2.8h2.1c0.1,0,0.4,0,0.6,0c1.2-0.2,1.9-1.2,1.9-2.4
			c0-1.2-0.7-2.2-1.9-2.4c-0.2,0-0.4,0-0.6,0h-3V52.5z M200.8,52.5h1v-3c0-1.3,0.6-2,1.6-2c1.2,0,1.6,1,1.6,2.1v2.9h1v-3.2
			c0-1.1-0.4-2.7-2.3-2.7c-0.8,0-1.5,0.3-1.9,0.9v-0.7h-0.9V52.5z M196.8,47.5c1,0,1.5,0.6,1.6,1.7h-3.4
			C195.2,48.1,195.8,47.5,196.8,47.5 M196.9,52.7c1.1,0,2.1-0.6,2.5-1.6l-0.9-0.3c-0.3,0.7-0.9,1-1.7,1c-1.1,0-1.7-0.7-1.8-1.9h4.4
			c0.1-2-0.9-3.3-2.7-3.3c-1.7,0-2.8,1.2-2.8,3.1C194,51.5,195.2,52.7,196.9,52.7 M190.2,51.8c-1.1,0-1.7-0.9-1.7-2.2
			c0-1.2,0.5-2.2,1.7-2.2c1.1,0,1.7,0.9,1.7,2.2C191.9,50.9,191.3,51.8,190.2,51.8 M190.1,52.7c0.8,0,1.4-0.3,1.8-0.8v0.7h0.8v-7.7
			h-1v2.4c-0.4-0.4-1-0.7-1.7-0.7c-1.6,0-2.6,1.3-2.6,3S188.5,52.7,190.1,52.7 M182.1,52.5h0.9v-5h1.5v-0.8h-1.5v-0.5
			c0-0.5,0.3-0.8,0.8-0.8h0.7v-0.8h-0.7c-0.4,0-1,0-1.4,0.4c-0.3,0.4-0.4,0.9-0.4,1.3v0.3h-1v0.8h1V52.5z M177.3,52.7
			c0.8,0,1.5-0.3,1.9-0.9v0.7h0.8v-5.8h-1v3c0,1.3-0.6,2-1.6,2c-1.2,0-1.6-1-1.6-2.1v-2.9h-1v3.2C175,51,175.4,52.7,177.3,52.7
			 M169.6,49.8l1.3-4l1.4,4H169.6z M167.8,52.5h1l0.6-1.8h3.3l0.6,1.8h1l-2.6-7.7h-1.3L167.8,52.5z M163.8,52.6
			c0.4,0,0.6-0.3,0.6-0.6s-0.3-0.6-0.6-0.6c-0.4,0-0.6,0.3-0.6,0.6S163.4,52.6,163.8,52.6 M162,52.5v-0.8c-0.8,0.1-1.4,0.1-1.6-0.4
			c-0.1-0.2-0.1-0.6-0.1-1v-2.8h1.7v-0.8h-1.7v-1.6h-0.9v1.6h-1.2v0.8h1.2v2.8c0,0.6,0,1,0.2,1.5C159.9,52.6,160.9,52.7,162,52.5
			 M152.3,52.5h1v-3c0-1.3,0.6-2,1.6-2c1.2,0,1.6,1,1.6,2.1v2.9h1v-3.2c0-1.1-0.4-2.7-2.3-2.7c-0.8,0-1.5,0.3-1.9,0.9v-2.7h-0.9
			V52.5z M148.6,52.7c1.2,0,2.1-0.6,2.5-1.7l-1-0.2c-0.3,0.7-0.8,1-1.5,1c-1.1,0-1.7-0.9-1.7-2.1c0-1.2,0.6-2.1,1.7-2.1
			c0.7,0,1.3,0.4,1.5,1.1l0.9-0.3c-0.3-1-1.2-1.7-2.5-1.7c-1.7,0-2.7,1.2-2.8,3C145.9,51.4,146.8,52.7,148.6,52.7 M143.6,52.5h0.9
			v-5.8h-0.9V52.5z M144,45.9c0.4,0,0.6-0.3,0.6-0.6c0-0.3-0.3-0.6-0.6-0.6c-0.4,0-0.6,0.3-0.6,0.6C143.4,45.6,143.7,45.9,144,45.9
			 M138,52.5h4.5v-0.9h-3.6v-6.8H138V52.5z"/>
	</g>
	<polygon class="st0" points="235.3,12.9 227.9,22.9 220.4,12.9 215.1,12.9 225.3,26.4 214.8,40.3 220.2,40.3 227.9,29.9 
		235.6,40.3 240.9,40.3 230.5,26.4 240.7,12.9 	"/>
	<g>
		<path class="st0" d="M207.3,27c0,6.3-3,9.4-7.5,9.4c-5.8,0-7.4-4.9-7.4-10.1V12.9h-4.6v14.8c0,5.2,2.1,12.9,10.9,12.9
			c3.9,0,7.1-1.5,9.1-4.2v3.8h4V12.9h-4.5V27z"/>
	</g>
	<rect x="180.3" y="4.2" class="st0" width="4.5" height="36.1"/>
	<g>
		<path class="st0" d="M83.9,11.8c-8,0-14.4,6.5-14.4,14.4c0,8,6.5,14.4,14.4,14.4s14.4-6.5,14.4-14.4
			C98.3,18.3,91.8,11.8,83.9,11.8 M83.9,36.4c-5.6,0-10.1-4.5-10.1-10.1s4.5-10.1,10.1-10.1S94,20.7,94,26.3S89.5,36.4,83.9,36.4"/>
		<path class="st0" d="M140.2,4.2h-4.5l0,8.8h-5.5v3.7h5.5v13.3c0,2.8-0.2,4.9,0.9,7c1.9,3.7,6.9,4.3,11.8,3.3v-3.9
			c-3.7,0.6-6.5,0.4-7.7-1.7c-0.7-1.1-0.6-2.7-0.6-4.9V16.6h8.2v-3.7h-8.2V4.2z"/>
		<path class="st0" d="M115.7,11.8c-3.9,0-7.4,1.5-10,4v-2.9h-4.5v35.8h4.5v-12c2.6,2.5,6.1,4,10,4c8,0,14.4-6.5,14.4-14.4
			C130.2,18.3,123.7,11.8,115.7,11.8 M115.7,36.4c-5.6,0-10.1-4.5-10.1-10.1s4.5-10.1,10.1-10.1s10.1,4.5,10.1,10.1
			S121.3,36.4,115.7,36.4"/>
		<path class="st0" d="M162.8,11.8c-8,0-14.4,6.5-14.4,14.4c0,8,6.5,14.4,14.4,14.4s14.4-6.5,14.4-14.4
			C177.2,18.3,170.7,11.8,162.8,11.8 M162.8,36.4c-5.6,0-10.1-4.5-10.1-10.1s4.5-10.1,10.1-10.1s10.1,4.5,10.1,10.1
			S168.4,36.4,162.8,36.4"/>
	</g>
	<polygon class="st0" points="235.3,12.9 227.9,22.9 220.4,12.9 215.1,12.9 225.3,26.4 214.8,40.3 220.2,40.3 227.9,29.9 
		235.6,40.3 240.9,40.3 230.5,26.4 240.7,12.9 	"/>
</g>
</svg>
